<?xml version="1.0" encoding="UTF-8"?>
<!DOCTYPE svg PUBLIC "-//W3C//DTD SVG 1.1//EN" "http://www.w3.org/Graphics/SVG/1.1/DTD/svg11.dtd">
<!-- Creator: CorelDRAW 2020 (64-Bit Evaluation Version) -->
<svg xmlns="http://www.w3.org/2000/svg" xml:space="preserve" width="0.842189in" height="0.842189in" version="1.1" style="shape-rendering:geometricPrecision; text-rendering:geometricPrecision; image-rendering:optimizeQuality; fill-rule:evenodd; clip-rule:evenodd"
viewBox="0 0 13765.11 13765.11"
 xmlns:xlink="http://www.w3.org/1999/xlink"
 xmlns:xodm="http://www.corel.com/coreldraw/odm/2003">
 <defs>
  <style type="text/css">
   <![CDATA[
    .fil0 {fill:#ED3237}
   ]]>
  </style>
 </defs>
 <g id="Layer_x0020_1">
  <metadata id="CorelCorpID_0Corel-Layer"/>
  <path class="fil0" d="M4783.26 329.53l1649.69 12.74c-111.45,0 -198.77,9.07 -297.48,23.1 -55.53,7.79 -227.28,32.88 -267.95,51.35l-2.25 -74.45c-79.21,0 -200.64,19.63 -273.61,31.85 -186.29,31.34 -541.23,112.54 -701.46,191.37l-2.83 -148.77c-39.64,3.73 -96.14,22.2 -135.2,31.85 -273.8,67.76 -597.15,205.85 -840.58,350.76l0 -129.66 -302.05 154.95c-37.45,22.39 -67.69,33.59 -103.92,55.53 -63.13,38.29 -323.54,186.42 -380.56,235.96l533.64 0 -96.52 55.15c-154.69,80.56 -315.5,183.97 -455.01,288.67 -29.92,22.39 -55.08,41.18 -85.2,63.64 -30.63,22.91 -47.55,52.38 -88.29,62.35 0,-77.28 19.18,-276.95 -10.62,-329.46 -45.17,18.4 -78.76,48.9 -119.95,79.79 -43.76,32.95 -77.67,58.36 -121.49,91.12 -81.14,60.49 -152.25,120.07 -229.53,185l-323.54 292.98c-50.71,51.41 -85.45,63.77 -106.82,103.66 50.9,28.76 360.16,10.55 446.45,10.55l-512.08 523.02 -2.45 -459.19c-151.28,116.6 -614.78,696.96 -699.4,837.56l278.5 2.12c-18.4,31.21 -55.02,69.56 -80.5,102.06l-220.52 321.29 -187.77 354.04c-15.96,35.65 -35.07,92.98 -53.28,124.45l223.22 1.67c-69.37,142.27 -133.97,231.33 -203.08,403.78l-32.95 55.4 0 -937.49c-61.58,70.78 -105.47,181.4 -153.28,261.25 -63.13,105.4 -182.49,359.9 -236.48,475.66 -60.49,129.66 -113.12,267.69 -161.71,401.6 -99.1,273.42 -196.84,575.34 -259,867.8 -115.63,543.68 -167.43,924.55 -167.43,1522.61 0,975.39 191.24,1914.87 584.73,2795.41 58.04,129.79 119.95,250.76 184.1,379.27l209.07 364.92 0 -831.25 26.96 40.09c6.43,14.09 8.11,22.65 14.67,38.22 114.15,269.04 168.98,306.1 258.16,486.6l-244.46 2.77c44.79,67.18 80.56,166.73 124.13,244.2 88.67,157.72 127.47,211.71 218.01,345.23l242.98 311.9 -204.63 0c11.84,44.4 227.73,295.81 257.84,326.76 71.94,73.87 190.34,237.51 284.29,300.38l0 -352.89c41.76,24.77 182.36,207.01 227.79,252.63l335.06 302.57c30.37,24.97 67.37,43.44 85.52,74.06l-372.06 0c12.68,17.25 54.76,49.81 76.9,71.94 31.21,31.14 52.7,42.02 85.13,74.32 90.15,89.57 458.55,362.86 539.5,417.1l0 -235.96c41.57,10.17 33.78,18.34 64.28,44.01 16.02,13.51 38.35,28.89 54.5,40.99 308.94,231.01 379.4,263.44 718.77,428.88 47.55,23.17 103.66,35.58 132.36,62.22l-427.79 0c10.87,9.46 20.59,18.02 36.03,27.73l130.63 71.36c59.14,33.07 115.57,57.98 177.02,88.74 382.1,190.99 741.81,328.24 1161.81,453.85 282.23,84.36 569.29,138.35 883.05,190.53 242.53,40.35 497.22,63.38 756.48,71.3l417.3 0c610.73,-18.08 1222.94,-113 1737.4,-259.52 429.01,-122.07 947.98,-329.98 1340.18,-541.17l150.25 -83.59c10.49,-7.59 16.54,-13.32 23.29,-19.24l-459.19 0c22.26,-21.36 209.71,-96.07 255.98,-118.92 156.88,-77.48 318.01,-173.1 460.93,-272.19 73.81,-51.22 135.97,-109.07 209.97,-153.15l0 257.26c62.22,-41.63 702.81,-516.65 775.97,-616.52l-406.04 0 162.87 -137c35.13,-29.34 45.94,-38.42 78.7,-69.95 66.09,-63.7 153.28,-124.64 226.06,-220.07l140.34 -149.09 0 384.8 394.9 -423.6c27.48,-34.23 47.75,-58.62 76.19,-93.88 29.66,-36.87 135.9,-158.94 145.43,-194.72l-235.96 0c27.73,-57.01 49.61,-62.1 85.13,-108.04 170.39,-220.39 232.36,-294.91 375.34,-549.08 43.5,-77.48 79.28,-177.02 124.13,-244.72l-244.52 -1.61c19.88,-40.67 42.53,-74.06 67.18,-115.18l190.15 -354.69 0 852.55c29.28,-21.49 70.72,-102.25 93.63,-140.21 31.79,-52.64 59.84,-99.29 90.47,-154.05 59.59,-106.69 107.72,-204.43 163.06,-315.18 55.15,-110.23 103.02,-214.34 152.12,-326.25l138.41 -348.38 -161.58 -2.12 85.07 -213.89c54.57,-137.83 170.07,-542.65 170.07,-687.17l-85.07 -2.45c1.16,-52.12 29.21,-138.22 40.54,-183.59 39.38,-158.1 76.45,-411.31 76.45,-583.9l12.74 1235.23 7.85 -13.51c84.81,-187.06 218.08,-1008.59 237.57,-1239.93 15.19,-180.17 25.42,-316.91 30.95,-443.42l0 -470c-2.57,-70.72 -6.05,-148 -10.62,-235.45 -14.8,-288.34 -91.12,-766.45 -153.02,-1037.49 -64.8,-284.35 -108.36,-410.73 -187.12,-673.85 -81.27,-271.55 -317.75,-812.97 -453.65,-1055.7 -44.53,-79.53 -207.46,-381.52 -247.87,-411.18l0 512.4c-1.74,-2.25 -3.6,-5.47 -4.57,-7.08 -0.97,-1.61 -3.22,-5.15 -4.38,-7.08l-166.92 -323.03 -336.54 -482.93 310.42 -2.64c-51.48,-85.65 -116.53,-163.44 -177.67,-245.42 -32.75,-43.95 -59.97,-74.97 -94.14,-118.4 -34.1,-43.5 -62.48,-74.39 -95.69,-116.92l-408.48 -441.88 0 491.11c-35.13,-20.78 -34.81,-26.9 -59.78,-59.59 -20.72,-27.03 -34.88,-36.16 -56.76,-59.91 -93.63,-101.54 -104.82,-128.05 -233,-234.42 -23.55,-19.56 -109.2,-97.17 -120.27,-115.44l446.45 -2.64 -103.47 -115.5c-38.54,-39.77 -81.72,-69.82 -109.13,-116.21 -36.81,-68.4 -411.7,-355.14 -488.34,-412.99 -15.31,-11.58 -18.02,-14.54 -36.1,-27.86 -30.05,-22.2 -12.23,-18.79 -47.42,-24.65l-168.72 -95.69 -1.35 329.53c-57.4,-34.23 -110.74,-78.83 -167.31,-121.49 -152.7,-115.12 -500.95,-303.14 -515.62,-316.46l566.01 0 -199.93 -129.6c-107.59,-64.8 -566.46,-326.7 -661.05,-348.77l0 129.73c-50.32,-11 -69.5,-33.85 -114.67,-56.82 -181.91,-92.73 -672.05,-286.67 -861.11,-304.56l-2.12 138.16c-71.49,-15.64 -157.2,-51.22 -225.54,-73.16 -193.3,-62.1 -546.12,-128.83 -750.24,-128.83l-12.74 63.83c-40.41,-18.34 -182.75,-35.71 -243.11,-44.4 -82.69,-11.97 -169.69,-19.43 -269.3,-19.43l1681.61 -12.74 -108.56 -40.28c-305.14,-84.1 -531.39,-150.83 -861.69,-201.22 -302.31,-46.07 -643.16,-77.99 -984.72,-88.03l-448.44 0c-242.01,8.37 -581,53.67 -815.61,86.68 -277.21,38.99 -493.81,102.12 -747.98,166.21 -45.56,11.45 -72.26,22.46 -114.73,34.1l-116.86 42.53zm2743.61 2770.25l-339.5 1195.33 -2368.53 1724.66 545.87 -1911.72c87.77,-306.1 130.56,-547.99 130.56,-723.6 0,-160.55 -57.78,-282.55 -173.42,-368.2 -115.57,-85.65 -381.01,-143.43 -798.5,-173.35l51.35 -218.4 4907 0 -670.19 488.02c-147.36,-8.49 -307.2,-12.74 -479.72,-12.74l-804.93 0zm-720.96 2538.28l-216.72 762.85 291.18 0c764.26,0 1323,-100.64 1674.08,-299.73 351.08,-199.09 648.69,-554.49 892.7,-1061.81l218.4 0 -954.8 3301.06 -218.33 0c38.48,-220.52 55.6,-400.31 55.6,-537.31 0,-231.2 -66.34,-417.49 -201.22,-565.17 -134.87,-145.56 -310.42,-250.51 -526.63,-312.6 -141.31,-40.67 -432.42,-62.03 -877.71,-62.03l-483.83 0 -813.49 2857.96c-72.78,252.63 -107.08,438.85 -107.08,560.86 0,96.33 44.98,173.42 137,231.2 134.94,83.52 387.5,126.32 757.89,126.32 715.04,0 1387.22,-151.99 2018.73,-455.97 629.39,-304.05 1196.75,-764.26 1697.63,-1380.85l256.94 0 -886.33 2337.77 -7193.03 0 77.09 -218.33c404.56,0 700.04,-81.4 886.27,-244.07 186.22,-162.74 353.21,-520.19 505.26,-1074.68l639.3 -2238.99 2371.1 -1726.46zm4138.68 -3013.55l493.55 0 -556.61 2132.24 -218.4 0c-17.12,-417.43 -81.34,-712.91 -196.91,-884.14 -142.66,-214.86 -322.58,-384.09 -539.75,-506.74l1018.12 -741.36z"/>
 </g>
</svg>
